<svg xmlns="http://www.w3.org/2000/svg" viewBox="0 0 240 234">
  <defs>
    <style>
      .cls-1{fill:#001e36}.cls-2{fill:#31a8ff}
    </style>
  </defs>
  <path class="cls-1" d="M42.5 0h155C221 0 240 19 240 42.5v149c0 23.5-19 42.5-42.5 42.5h-155C19 234 0 215 0 191.5v-149C0 19 19 0 42.5 0z"/>
  <path class="cls-2" d="M54 164.1V61.2c0-.8.3-1.2 1.2-1.2h29.7c8 0 14.9.9 20.6 3.3 5.7 2.4 10.6 6 14.1 11 3.5 5 5.2 11.1 5.2 18.4 0 8.9-2.7 16.2-8 21.9-5.3 5.7-12.6 9.3-21.8 10.7l25.4 37.4c.4.7.5 1.2.3 1.6-.2.4-.7.6-1.4.6h-18.4c-1.1 0-2-.5-2.6-1.6l-23.7-36h-7.2v36c0 .8-.4 1.2-1.2 1.2H55.2c-.8 0-1.2-.4-1.2-1.2zm33.7-52.6h7.7c6.4 0 11.3-1.2 14.5-3.6 3.2-2.4 4.8-6.1 4.8-11.3 0-5.1-1.5-8.9-4.6-11.3-3.1-2.4-7.9-3.6-14.3-3.6h-8.1v29.8z"/>
</svg> 